<svg xmlns="http://www.w3.org/2000/svg" width="347.561" height="281.68" viewBox="0 0 347.561 281.68"><g transform="translate(4740.256 2706.681)"><g transform="translate(-4867.937 -2937)"><circle cx="15.785" cy="15.785" r="15.785" transform="translate(242.455 411.435)" fill="#fff"/><circle cx="15.02" cy="15.02" r="15.02" transform="translate(309.34 430.31)" fill="#fff"/><circle cx="15.02" cy="15.02" r="15.02" transform="translate(262.77 343.37)" fill="#fff"/><circle cx="18.93" cy="18.93" r="18.93" transform="translate(316.8 367.48)" fill="#fff"/><circle cx="20.279" cy="20.279" r="20.279" transform="translate(257.511 471.441)" fill="#fff"/><path d="M168.093,356.227l79.671,33a5.758,5.758,0,0,0,7.524-3.117l45.675-110.269a5.758,5.758,0,0,0-3.117-7.524l-79.671-33a65.435,65.435,0,0,0-85.5,35.414h0A65.436,65.436,0,0,0,168.093,356.227Z" fill="#fff"/><path d="M255.289,386.112l11.249-27.157c-94.1-17.909-125.694-73.52-118.33-110.754a65.164,65.164,0,0,0-15.528,22.53h0a65.435,65.435,0,0,0,35.414,85.5l79.671,33A5.758,5.758,0,0,0,255.289,386.112Z" fill="#fff" opacity="0.1"/><path d="M434.83,356.227l-79.671,33a5.758,5.758,0,0,1-7.524-3.117L301.96,275.842a5.758,5.758,0,0,1,3.117-7.524l79.671-33a65.435,65.435,0,0,1,85.5,35.414h0A65.437,65.437,0,0,1,434.83,356.227Z" fill="#fff"/></g></g></svg>