<?xml version="1.0" encoding="UTF-8"?>
<svg enable-background="new 0 0 300 200" version="1.1" viewBox="0 0 300 200" xml:space="preserve" xmlns="http://www.w3.org/2000/svg">
	 <path class="st0" d="m210 141h-17.1l1.2-2c0.8-1.4 1.2-3 1.2-4.7v-77.9c0-2.5-1-4.8-2.7-6.6-1.7-1.7-4.1-2.7-6.6-2.7h-64c-2.5 0-4.8 1-6.6 2.7-1.8 1.8-2.7 4.1-2.7 6.6v4.1h-9.3c-2.5 0-4.8 1-6.6 2.7-1.8 1.8-2.8 4.1-2.8 6.6v77.7c0 1.6 0.4 3.2 1.2 4.7l1.2 2h-14.4c-0.7 0-1.3 0.6-1.3 1.3 0 0.3 0.1 0.7 0.4 0.9 0.2 0.2 0.6 0.4 0.9 0.4h67.7l6.9 6.9c0.7 0.7 1.8 1.2 2.8 1.2s2.1-0.4 2.8-1.2c1.3-1.3 1.5-3.3 0.6-4.9l-1.2-2.1h16.4c0.7 0 1.3-0.6 1.3-1.3s-0.6-1.3-1.3-1.3h-3.8l1.2-2c0.8-1.4 1.2-3 1.2-4.7v-4.1h33.4c0.7 0 1.3-0.6 1.3-1.3 0-0.5-0.6-1-1.3-1zm-36 6.6c0 3.7-3 6.7-6.7 6.7h-9l-9.3-9.4c-1-1-2.5-1.4-3.8-1l-0.8 0.2-3.9-3.9 0.7-0.9c5.4-7.3 4.3-17.6-2.5-23.6s-17.2-5.6-23.6 0.9c-6.4 6.4-6.7 16.8-0.8 23.7 5.9 6.8 16.2 8 23.4 2.6l0.9-0.7 3.9 3.9-0.2 0.8c-0.4 1.4 0 2.9 1 3.9l3.7 3.7h-43.7c-3.7 0-6.7-3-6.7-6.7v-78c0-3.6 2.9-6.6 6.5-6.6h64.4c3.6 0 6.5 3 6.5 6.6v77.8zm-36.3-8.3c-2.9 2.9-6.6 4.3-10.4 4.3s-7.5-1.4-10.4-4.3c-2.8-2.8-4.3-6.5-4.3-10.4s1.5-7.7 4.3-10.4c2.8-2.8 6.5-4.3 10.4-4.3s7.6 1.5 10.4 4.3 4.3 6.5 4.3 10.4-1.5 7.6-4.3 10.4zm55-5.1c0 3.7-3 6.7-6.7 6.7h-9.4v-71c0-2.5-1-4.8-2.7-6.6-1.7-1.7-4.1-2.7-6.6-2.7h-52v-4c0-3.7 3-6.7 6.7-6.7h64c3.7 0 6.7 3 6.7 6.7v77.6zm-121.5 20.2h-16c-0.7 0-1.3 0.6-1.3 1.3 0 0.4 0.1 0.7 0.4 0.9 0.2 0.2 0.6 0.4 0.9 0.4h16c0.7 0 1.3-0.6 1.3-1.3s-0.5-1.3-1.3-1.3z"/>
	<path class="st0" d="m111.3 76.6h29.3c0.7 0 1.3-0.6 1.3-1.3s-0.6-1.3-1.3-1.3h-29.3c-0.7 0-1.3 0.6-1.3 1.3 0 0.3 0.1 0.7 0.4 0.9 0.2 0.3 0.6 0.4 0.9 0.4zm42.7 10.8h-42.7c-0.7 0-1.3 0.6-1.3 1.3 0 0.4 0.1 0.7 0.4 0.9 0.2 0.2 0.6 0.4 0.9 0.4h42.7c0.7 0 1.3-0.6 1.3-1.3s-0.6-1.3-1.3-1.3zm-24 13.4h-18.7c-0.7 0-1.3 0.6-1.3 1.3 0 0.4 0.1 0.7 0.4 0.9 0.2 0.2 0.6 0.4 0.9 0.4h18.7c0.7 0 1.3-0.6 1.3-1.3-0.1-0.8-0.6-1.3-1.3-1.3zm-60 24.1h2.7c0.7 0 1.3 0.6 1.3 1.3s-0.6 1.3-1.3 1.3h-2.7v2.7c0 0.7-0.6 1.3-1.3 1.3-0.4 0-0.7-0.1-0.9-0.4-0.3-0.2-0.4-0.6-0.4-0.9v-2.7h-2.7c-0.7 0-1.3-0.6-1.3-1.3s0.6-1.3 1.3-1.3h2.7v-2.7c0-0.7 0.6-1.3 1.3-1.3s1.3 0.6 1.3 1.3v2.7zm176-10.8v-2.7c0-0.4-0.1-0.7-0.4-0.9s-0.6-0.4-0.9-0.4c-0.7 0-1.3 0.6-1.3 1.3v2.7h-2.7c-0.4 0-0.7 0.1-0.9 0.4s-0.4 0.6-0.4 0.9c0 0.7 0.6 1.3 1.3 1.3h2.7v2.7c0 0.7 0.6 1.3 1.3 1.3s1.3-0.6 1.3-1.3v-2.7h2.7c0.7 0 1.3-0.6 1.3-1.3s-0.6-1.3-1.3-1.3h-2.7zm-162-73h4c1.1 0 2 0.9 2 2s-0.9 2-2 2h-4v4c0 1.1-0.9 2-2 2-0.5 0-1-0.2-1.4-0.6s-0.6-0.9-0.6-1.5v-4h-4c-0.5 0-1-0.2-1.4-0.6-0.4-0.3-0.6-0.8-0.6-1.4 0-1.1 0.9-2 2-2h4v-4c0-1.1 0.9-2 2-2s2 0.9 2 2v4.1zm-26.1 28.8c-2.9 0-5.5 1.5-6.9 4s-1.4 5.6 0 8c1.4 2.5 4.1 4 6.9 4 4.4 0 8-3.6 8-8s-3.6-8-8-8zm3.5 10.1c-0.7 1.2-2 2-3.5 2-2.2 0-4-1.8-4-4s1.8-4 4-4c1.4 0 2.7 0.8 3.5 2 0.7 1.2 0.7 2.7 0 4zm161.9-26.1c-2.9 0-5.5 1.5-6.9 4s-1.4 5.6 0 8c1.4 2.5 4.1 4 6.9 4 4.4 0 8-3.6 8-8s-3.5-8-8-8zm3.5 10c-0.7 1.2-2 2-3.5 2-2.2 0-4-1.8-4-4s1.8-4 4-4c1.4 0 2.8 0.8 3.5 2s0.7 2.8 0 4z"/>
</svg>
