<svg height="354pt" viewBox="0 -1 354.50363 354" width="354pt" xmlns="http://www.w3.org/2000/svg"><path d="m177.253906 168.285156c-16.53125 0-29.933594-13.402344-29.933594-29.933594s13.402344-29.933593 29.933594-29.933593 29.933594 13.402343 29.933594 29.933593c0 3.867188 3.132812 7 7 7s7-3.132812 7-7c-.027344-21.550781-15.664062-39.910156-36.933594-43.371093v-13.855469c0-3.867188-3.132812-7-7-7-3.867187 0-7 3.132812-7 7v13.855469c-22.601562 3.65625-38.605468 24.058593-36.773437 46.878906 1.828125 22.824219 20.878906 40.414063 43.773437 40.421875 16.464844 0 29.835938 13.292969 29.933594 29.757812.09375 16.460938-13.125 29.910157-29.585938 30.101563-.117187-.007813-.230468-.019531-.347656-.019531-.117187 0-.230468.011718-.347656.019531-16.386719-.207031-29.566406-13.539063-29.585938-29.925781 0-3.867188-3.132812-7-7-7-3.863281 0-7 3.132812-7 7 .027344 21.550781 15.664063 39.910156 36.933594 43.371094v15.539062c0 3.867188 3.132813 7 7 7 3.867188 0 7-3.132812 7-7v-15.539062c22.601563-3.65625 38.605469-24.058594 36.773438-46.878907-1.828125-22.820312-20.878906-40.410156-43.773438-40.421875zm0 0" fill="#1ae5be"/><g fill="#0635c9"><path d="m107.464844 271.359375c-1.421875-2.414063-4.152344-3.746094-6.929688-3.386719l-54.945312 7.136719c-1.890625.242187-3.601563 1.25-4.734375 2.789063-1.132813 1.535156-1.589844 3.464843-1.265625 5.347656l9.464844 54.589844c.476562 2.761718 2.558593 4.972656 5.289062 5.617187s5.582031-.402344 7.242188-2.660156l15-20.359375c29.589843 20.652344 64.832031 31.675781 100.917968 31.5625 97.597656 0 177-79.398438 177-177 .042969-23.410156-4.585937-46.59375-13.621094-68.1875-.949218-2.332032-3.078124-3.972656-5.574218-4.300782-2.492188-.328124-4.972656.707032-6.492188 2.714844-1.519531 2.003906-1.84375 4.671875-.851562 6.984375 8.316406 19.886719 12.582031 41.234375 12.539062 62.789063 0 89.878906-73.121094 163-163 163-33.097656.105468-65.421875-9.964844-92.609375-28.839844l22.171875-30.089844c1.664063-2.257812 1.820313-5.289062.398438-7.707031zm-37.929688 35.050781c-.015625.015625-.03125.035156-.042968.050782-.015626.019531-.042969.066406-.066407.101562l-9.371093 12.71875-5.414063-31.230469 31.433594-4.082031zm0 0"/><path d="m20.082031 249.742188c2.34375 0 4.527344-1.171876 5.824219-3.121094 1.296875-1.949219 1.535156-4.417969.632812-6.578125-8.316406-19.886719-12.582031-41.234375-12.539062-62.789063 0-89.878906 73.121094-163 163-163 33.09375-.101562 65.421875 9.964844 92.605469 28.839844l-22.167969 30.089844c-1.566406 2.125-1.800781 4.953125-.613281 7.308594 1.191406 2.355468 3.605469 3.84375 6.246093 3.84375.300782 0 .601563-.019532.902344-.058594l54.941406-7.132813c1.890626-.246093 3.601563-1.253906 4.734376-2.789062 1.132812-1.535157 1.589843-3.46875 1.265624-5.351563l-9.460937-54.589844c-.476563-2.761718-2.558594-4.972656-5.289063-5.617187-2.730468-.644531-5.578124.402344-7.242187 2.660156l-15 20.359375c-29.59375-20.652344-64.835937-31.675781-100.921875-31.5625-97.601562 0-177 79.398438-177 177-.0429688 23.410156 4.585938 46.589844 13.621094 68.1875 1.089844 2.605469 3.636718 4.304688 6.460937 4.300782zm274.371094-216.773438 5.414063 31.230469-31.429688 4.082031 16.53125-22.441406c.015625-.015625.03125-.035156.046875-.054688.015625-.015625.042969-.0625.066406-.097656zm0 0"/></g></svg>